<?xml version="1.0" encoding="UTF-8"?>
<svg id="grid" xmlns="http://www.w3.org/2000/svg" viewBox="0 0 751.42 751.47">
  <path d="M751.42,375.71c0,207.51-168.19,375.76-375.71,375.76S0,583.22,0,375.71c0-51.19,10.27-100.03,28.8-144.5,14.83,16.03,33.96,28,55.55,34.06-13.02,34.31-20.14,71.53-20.14,110.44,0,172.05,139.44,311.5,311.5,311.5s311.5-139.44,311.5-311.5S547.76,64.26,375.71,64.26c-53.89,0-104.53,13.67-148.76,37.72-8.82-20.44-23.24-37.87-41.22-50.44C241.42,18.78,306.39,0,375.71,0c207.51,0,375.71,168.24,375.71,375.71Z"/>
  <path d="M468.57,471.53c18.43,14.33,41.17,23.39,65.92,25.04-36.41,47.83-94.01,78.69-158.78,78.69-110.19,0-199.55-89.36-199.55-199.55s89.36-199.5,199.55-199.5c64.76,0,122.36,30.85,158.78,78.64-24.74,1.65-47.48,10.72-65.92,25.04-23.99-23.29-56.75-37.62-92.86-37.62-73.73,0-133.48,59.75-133.48,133.43s59.75,133.48,133.48,133.48c36.11,0,68.87-14.33,92.86-37.67Z"/>
  <path d="M613.77,375.71c0,32.11-21.24,59.2-50.44,68.02-6.51,2-13.47,3.06-20.64,3.06-17.23,0-33.01-6.11-45.28-16.33-15.73-13.02-25.75-32.71-25.75-54.75s10.02-41.67,25.75-54.7v-.05c12.27-10.17,28.05-16.28,45.28-16.28,7.21,0,14.12,1.05,20.69,3.06,29.15,8.87,50.39,35.96,50.39,67.97Z"/>
  <path d="M185.53,149.81c0,37.87-30.7,68.57-68.57,68.57-3.31,0-6.56-.25-9.72-.7-22.99-3.26-42.27-17.88-52.04-38.07-4.36-9.02-6.81-19.13-6.81-29.8,0-37.87,30.7-68.62,68.57-68.62,7.46,0,14.63,1.2,21.34,3.36,21.54,7.11,38.42,24.54,44.63,46.48,1.7,5.96,2.6,12.27,2.6,18.78Z"/>
</svg>