<?xml version="1.0" encoding="UTF-8"?>
<svg id="grid" xmlns="http://www.w3.org/2000/svg" viewBox="0 0 773.19 773.19">
  <defs>
    <style>
      .cls-1 {
        fill: #fff;
      }
    </style>
  </defs>
  <rect width="773.19" height="773.19" rx="148.95" ry="148.95"/>
  <g>
    <path class="cls-1" d="M650.19,386.58c0,145.59-118,263.63-263.59,263.63S123,532.17,123,386.58c0-35.91,7.2-70.18,20.21-101.38,10.4,11.25,23.83,19.64,38.97,23.9-9.14,24.07-14.13,50.18-14.13,77.49,0,120.71,97.83,218.54,218.54,218.54s218.54-97.83,218.54-218.54-97.83-218.51-218.54-218.51c-37.81,0-73.34,9.59-104.37,26.46-6.18-14.34-16.31-26.57-28.92-35.39,39.08-22.98,84.65-36.16,133.29-36.16,145.59,0,263.59,118.04,263.59,263.59Z"/>
    <path class="cls-1" d="M451.75,453.8c12.93,10.05,28.89,16.41,46.25,17.57-25.55,33.56-65.96,55.21-111.4,55.21-77.31,0-140-62.69-140-140s62.69-139.97,140-139.97c45.44,0,85.85,21.65,111.4,55.17-17.36,1.16-33.31,7.52-46.25,17.57-16.83-16.34-39.81-26.39-65.15-26.39-51.73,0-93.65,41.92-93.65,93.62s41.92,93.65,93.65,93.65c25.34,0,48.32-10.05,65.15-26.43Z"/>
    <path class="cls-1" d="M553.62,386.58c0,22.53-14.9,41.54-35.39,47.72-4.57,1.41-9.45,2.14-14.48,2.14-12.09,0-23.16-4.29-31.77-11.46-11.03-9.14-18.06-22.95-18.06-38.41s7.03-29.24,18.06-38.37v-.03c8.61-7.13,19.68-11.42,31.77-11.42,5.06,0,9.91,.74,14.51,2.14,20.45,6.22,35.35,25.23,35.35,47.69Z"/>
    <path class="cls-1" d="M253.17,228.09c0,26.57-21.54,48.11-48.11,48.11-2.32,0-4.6-.18-6.82-.49-16.13-2.28-29.66-12.55-36.51-26.71-3.06-6.33-4.78-13.42-4.78-20.91,0-26.57,21.54-48.14,48.11-48.14,5.24,0,10.26,.84,14.97,2.35,15.11,4.99,26.95,17.22,31.31,32.61,1.19,4.18,1.83,8.61,1.83,13.18Z"/>
  </g>
</svg>